<svg width="23" height="22" viewBox="0 0 23 22" fill="none" xmlns="http://www.w3.org/2000/svg">
<path d="M6.625 7.75H6.63625M11.125 7.75H11.1363M15.625 7.75H15.6363M7.75 14.5H3.25C2.65326 14.5 2.08097 14.2629 1.65901 13.841C1.23705 13.419 1 12.8467 1 12.25V3.25C1 2.65326 1.23705 2.08097 1.65901 1.65901C2.08097 1.23705 2.65326 1 3.25 1H19C19.5967 1 20.169 1.23705 20.591 1.65901C21.0129 2.08097 21.25 2.65326 21.25 3.25V12.25C21.25 12.8467 21.0129 13.419 20.591 13.841C20.169 14.2629 19.5967 14.5 19 14.5H13.375L7.75 20.125V14.5Z" stroke="white" stroke-width="2" stroke-linecap="round" stroke-linejoin="round"/>
</svg>
