<svg width="28" height="28" viewBox="0 0 28 28" fill="none" xmlns="http://www.w3.org/2000/svg">
<path d="M10.5 16.333C10.5 18.2662 13.6337 19.833 17.5 19.833C21.3663 19.833 24.5 18.2662 24.5 16.333C24.5 14.3998 21.3663 12.833 17.5 12.833C13.6337 12.833 10.5 14.3998 10.5 16.333Z" stroke="white" stroke-width="2" stroke-linecap="round" stroke-linejoin="round"/>
<path d="M10.5 16.333V20.9997C10.5 22.9317 13.6337 24.4997 17.5 24.4997C21.3663 24.4997 24.5 22.9317 24.5 20.9997V16.333" stroke="white" stroke-width="2" stroke-linecap="round" stroke-linejoin="round"/>
<path d="M3.5 7C3.5 8.25067 4.83467 9.40567 7 10.031C9.16533 10.6563 11.8347 10.6563 14 10.031C16.1653 9.40567 17.5 8.25067 17.5 7C17.5 5.74933 16.1653 4.59433 14 3.969C11.8347 3.34367 9.16533 3.34367 7 3.969C4.83467 4.59433 3.5 5.74933 3.5 7Z" stroke="white" stroke-width="2" stroke-linecap="round" stroke-linejoin="round"/>
<path d="M3.5 7V18.6667C3.5 19.7027 4.40067 20.3583 5.83333 21" stroke="white" stroke-width="2" stroke-linecap="round" stroke-linejoin="round"/>
<path d="M3.5 12.833C3.5 13.869 4.40067 14.5247 5.83333 15.1663" stroke="white" stroke-width="2" stroke-linecap="round" stroke-linejoin="round"/>
</svg>
