<svg width="26" height="24" viewBox="0 0 26 24" fill="none" xmlns="http://www.w3.org/2000/svg">
<path d="M23.8051 1L14.4404 7.95529L16.1722 3.85177L23.8051 1Z" fill="white" stroke="white" stroke-linecap="round" stroke-linejoin="round"/>
<path d="M2.18555 1L11.475 8.02118L9.8279 3.85177L2.18555 1Z" fill="white" stroke="white" stroke-linecap="round" stroke-linejoin="round"/>
<path d="M20.4345 17.1223L17.9404 20.9435L23.2769 22.4117L24.811 17.207L20.4345 17.1223Z" fill="white" stroke="white" stroke-linecap="round" stroke-linejoin="round"/>
<path d="M1.19727 17.207L2.72197 22.4117L8.05844 20.9435L5.56432 17.1223L1.19727 17.207Z" fill="white" stroke="white" stroke-linecap="round" stroke-linejoin="round"/>
<path d="M7.75757 10.666L6.27051 12.9154L11.5693 13.1507L11.3811 7.45654L7.75757 10.666Z" fill="white" stroke="white" stroke-linecap="round" stroke-linejoin="round"/>
<path d="M18.2324 10.6659L14.5618 7.39062L14.4395 13.1506L19.7289 12.9153L18.2324 10.6659Z" fill="white" stroke="white" stroke-linecap="round" stroke-linejoin="round"/>
<path d="M8.05859 20.9435L11.2398 19.3905L8.49153 17.2446L8.05859 20.9435Z" fill="white" stroke="white" stroke-linecap="round" stroke-linejoin="round"/>
<path d="M14.75 19.3905L17.9406 20.9435L17.4982 17.2446L14.75 19.3905Z" fill="white" stroke="white" stroke-linecap="round" stroke-linejoin="round"/>
<path d="M17.9416 20.9436L14.751 19.3906L15.0051 21.4706L14.9769 22.3459L17.9416 20.9436Z" fill="white" stroke="white" stroke-linecap="round" stroke-linejoin="round"/>
<path d="M8.05859 20.9436L11.0233 22.3459L11.0045 21.4706L11.2398 19.3906L8.05859 20.9436Z" fill="white" stroke="white" stroke-linecap="round" stroke-linejoin="round"/>
<path d="M11.0701 15.8706L8.41602 15.0894L10.289 14.2329L11.0701 15.8706Z" fill="#0462AD" stroke="#0462AD" stroke-linecap="round" stroke-linejoin="round"/>
<path d="M14.9199 15.8706L15.7011 14.2329L17.5835 15.0894L14.9199 15.8706Z" fill="#0462AD" stroke="#0462AD" stroke-linecap="round" stroke-linejoin="round"/>
<path d="M8.05857 20.9435L8.51033 17.1223L5.56445 17.207L8.05857 20.9435Z" fill="white" stroke="white" stroke-linecap="round" stroke-linejoin="round"/>
<path d="M17.4893 17.1223L17.941 20.9435L20.4351 17.207L17.4893 17.1223Z" fill="white" stroke="white" stroke-linecap="round" stroke-linejoin="round"/>
<path d="M19.7289 12.9153L14.4395 13.1506L14.9289 15.8706L15.71 14.2329L17.5924 15.0894L19.7289 12.9153Z" fill="white" stroke="white" stroke-linecap="round" stroke-linejoin="round"/>
<path d="M8.41639 15.0894L10.2987 14.2329L11.0705 15.8706L11.5693 13.1506L6.27051 12.9153L8.41639 15.0894Z" fill="white" stroke="white" stroke-linecap="round" stroke-linejoin="round"/>
<path d="M6.27051 12.9153L8.49168 17.2447L8.41639 15.0894L6.27051 12.9153Z" fill="#0689F3" stroke="#0689F3" stroke-linecap="round" stroke-linejoin="round"/>
<path d="M17.5931 15.0894L17.499 17.2447L19.7296 12.9153L17.5931 15.0894Z" fill="#0689F3" stroke="#0689F3" stroke-linecap="round" stroke-linejoin="round"/>
<path d="M11.5691 13.1504L11.0703 15.8704L11.6915 19.0798L11.8327 14.8539L11.5691 13.1504Z" fill="#0689F3" stroke="#0689F3" stroke-linecap="round" stroke-linejoin="round"/>
<path d="M14.4397 13.1504L14.1855 14.8445L14.2985 19.0798L14.9291 15.8704L14.4397 13.1504Z" fill="#0689F3" stroke="#0689F3" stroke-linecap="round" stroke-linejoin="round"/>
<path d="M14.9294 15.8705L14.2988 19.0799L14.7506 19.3905L17.4988 17.2447L17.5929 15.0894L14.9294 15.8705Z" fill="white" stroke="white" stroke-linecap="round" stroke-linejoin="round"/>
<path d="M8.41602 15.0894L8.49131 17.2447L11.2395 19.3905L11.6913 19.0799L11.0701 15.8705L8.41602 15.0894Z" fill="white" stroke="white" stroke-linecap="round" stroke-linejoin="round"/>
<path d="M14.9762 22.3457L15.0045 21.4704L14.7692 21.2634H11.2209L11.0045 21.4704L11.0233 22.3457L8.05859 20.9434L9.09389 21.7904L11.1927 23.2492H14.7974L16.9057 21.7904L17.9409 20.9434L14.9762 22.3457Z" fill="white" stroke="white" stroke-linecap="round" stroke-linejoin="round"/>
<path d="M14.7508 19.3907L14.299 19.0801H11.6919L11.2402 19.3907L11.0049 21.4707L11.2214 21.2636H14.7696L15.0049 21.4707L14.7508 19.3907Z" fill="#023A68" stroke="#023A68" stroke-linecap="round" stroke-linejoin="round"/>
<path d="M24.2004 8.40706L25.0004 4.56706L23.8051 1L14.751 7.72L18.2333 10.6659L23.1557 12.1059L24.2474 10.8353L23.7769 10.4965L24.5298 9.80941L23.9463 9.35765L24.6992 8.78353L24.2004 8.40706Z" fill="#0462AD" stroke="white" stroke-linecap="round" stroke-linejoin="round"/>
<path d="M1 4.56706L1.8 8.40706L1.29176 8.78353L2.04471 9.35765L1.47059 9.80941L2.22353 10.4965L1.75294 10.8353L2.83529 12.1059L7.75765 10.6659L11.24 7.72L2.18588 1L1 4.56706Z" fill="#0462AD" stroke="white" stroke-linecap="round" stroke-linejoin="round"/>
<path d="M23.1555 12.106L18.2331 10.666L19.7296 12.9154L17.499 17.2448L20.4355 17.2072H24.812L23.1555 12.106Z" fill="white" stroke="white" stroke-linecap="round" stroke-linejoin="round"/>
<path d="M7.75727 10.666L2.83491 12.106L1.19727 17.2072H5.56432L8.49138 17.2448L6.27021 12.9154L7.75727 10.666Z" fill="white" stroke="white" stroke-linecap="round" stroke-linejoin="round"/>
<path d="M14.4399 13.1509L14.7505 7.72029L16.1811 3.85205H9.82812L11.2399 7.72029L11.5693 13.1509L11.6822 14.8638L11.6917 19.0803H14.2987L14.3175 14.8638L14.4399 13.1509Z" fill="white" stroke="white" stroke-linecap="round" stroke-linejoin="round"/>
</svg>
