<svg width="35" height="35" viewBox="0 0 35 35" fill="none" xmlns="http://www.w3.org/2000/svg">
<path d="M17.5007 10.2083C19.1115 10.2083 20.4173 8.9025 20.4173 7.29167C20.4173 5.68084 19.1115 4.375 17.5007 4.375C15.8898 4.375 14.584 5.68084 14.584 7.29167C14.584 8.9025 15.8898 10.2083 17.5007 10.2083Z" stroke="white" stroke-width="3" stroke-linecap="round" stroke-linejoin="round"/>
<path d="M29.1674 18.2292V25.1563C29.177 25.3184 29.1495 25.4804 29.0872 25.6303C28.9899 25.8649 28.8091 26.055 28.5797 26.164L20.6143 29.9265C19.6408 30.3865 18.5774 30.625 17.5007 30.625C16.424 30.625 15.3607 30.3865 14.3872 29.9265L6.42179 26.164C6.23381 26.075 6.07728 25.9309 5.97287 25.751C5.86846 25.5711 5.82109 25.3637 5.837 25.1563L5.83408 18.2292" stroke="white" stroke-width="3" stroke-linecap="round" stroke-linejoin="round"/>
<path d="M6.46143 17.8151L14.6777 14.4143C16.4848 13.6672 18.5143 13.6672 20.3214 14.4143L28.5377 17.8151C28.7197 17.8895 28.876 18.0154 28.9874 18.1774C29.0989 18.3394 29.1605 18.5305 29.1649 18.727C29.1692 18.9236 29.116 19.1172 29.0119 19.2839C28.9077 19.4507 28.7571 19.5834 28.5785 19.6657L20.6131 23.3743C19.6378 23.8278 18.5752 24.0627 17.4996 24.0627C16.424 24.0627 15.3613 23.8278 14.386 23.3743L6.4206 19.6657C6.24106 19.5841 6.08944 19.4515 5.98451 19.2845C5.87959 19.1175 5.82598 18.9234 5.83032 18.7262C5.83467 18.5291 5.89679 18.3375 6.00897 18.1753C6.12115 18.013 6.27847 17.8873 6.46143 17.8137V17.8151Z" stroke="white" stroke-width="3" stroke-linecap="round" stroke-linejoin="round"/>
<path d="M17.5 10.2083V18.9583" stroke="white" stroke-width="3" stroke-linecap="round" stroke-linejoin="round"/>
</svg>
