<svg width="35" height="35" viewBox="0 0 35 35" fill="none" xmlns="http://www.w3.org/2000/svg">
<path d="M22.3846 7.8006L27.1985 12.6146C27.3612 12.7771 27.4903 12.9701 27.5784 13.1825C27.6665 13.395 27.7118 13.6227 27.7118 13.8527C27.7118 14.0827 27.6665 14.3104 27.5784 14.5228C27.4903 14.7353 27.3612 14.9283 27.1985 15.0908L25.781 16.5083C26.4888 18.8417 26.3966 21.3447 25.5191 23.6196C24.6415 25.8946 23.0289 27.8111 20.9374 29.0646C18.846 30.3182 16.3956 30.8369 13.9756 30.5384C11.5556 30.24 9.30467 29.1414 7.58049 27.4172C5.85631 25.693 4.75771 23.4421 4.45923 21.0221C4.16074 18.6021 4.67948 16.1517 5.93304 14.0602C7.1866 11.9688 9.10308 10.3562 11.3781 9.47862C13.653 8.60105 16.156 8.50884 18.4894 9.21664L19.9069 7.79914C20.0694 7.63643 20.2624 7.50735 20.4748 7.41929C20.6873 7.33122 20.915 7.28589 21.145 7.28589C21.375 7.28589 21.6027 7.33122 21.8151 7.41929C22.0276 7.50735 22.2206 7.63643 22.3831 7.79914L22.3846 7.8006Z" stroke="white" stroke-width="3" stroke-linecap="round" stroke-linejoin="round"/>
<path d="M24.791 10.2083L26.6766 8.32271C27.0035 7.99579 27.2628 7.60769 27.4397 7.18057C27.6167 6.75344 27.7077 6.29565 27.7077 5.83333C27.7077 5.44656 27.8613 5.07563 28.1348 4.80214C28.4083 4.52865 28.7792 4.375 29.166 4.375H30.6243" stroke="white" stroke-width="3" stroke-linecap="round" stroke-linejoin="round"/>
<path d="M10.209 18.9583C10.209 17.7979 10.6699 16.6851 11.4904 15.8647C12.3109 15.0442 13.4237 14.5833 14.584 14.5833" stroke="white" stroke-width="3" stroke-linecap="round" stroke-linejoin="round"/>
</svg>
