<svg width="35" height="35" viewBox="0 0 35 35" fill="none" xmlns="http://www.w3.org/2000/svg">
<path d="M5.2557 10.4956L15.6653 5.96161C15.8371 5.88798 16.0218 5.8495 16.2087 5.84841C16.3956 5.84733 16.5808 5.88367 16.7534 5.9553C16.926 6.02693 17.0825 6.13239 17.2137 6.26546C17.3449 6.39854 17.4482 6.55654 17.5174 6.73015L24.6982 24.0872C24.8459 24.4394 24.8502 24.8353 24.7102 25.1905C24.5701 25.5458 24.2969 25.8323 23.9486 25.9889L13.5405 30.5229C13.3686 30.5967 13.1837 30.6354 12.9967 30.6366C12.8097 30.6378 12.6243 30.6015 12.4515 30.5298C12.2787 30.4582 12.122 30.3527 11.9907 30.2195C11.8594 30.0863 11.7561 29.9281 11.6869 29.7543L4.50612 12.3958C4.35879 12.0436 4.35469 11.6478 4.49468 11.2927C4.63467 10.9376 4.9077 10.651 5.2557 10.4941V10.4956Z" stroke="white" stroke-width="3" stroke-linecap="round" stroke-linejoin="round"/>
<path d="M21.875 5.83325H23.3333C23.7201 5.83325 24.091 5.9869 24.3645 6.26039C24.638 6.53388 24.7917 6.90481 24.7917 7.29159V12.3958" stroke="white" stroke-width="3" stroke-linecap="round" stroke-linejoin="round"/>
<path d="M29.1673 8.75C29.5523 8.91333 29.9257 9.06646 30.2873 9.20938C30.6433 9.36044 30.9247 9.64672 31.0697 10.0053C31.2146 10.3638 31.2112 10.7652 31.0602 11.1212L27.709 18.9583" stroke="white" stroke-width="3" stroke-linecap="round" stroke-linejoin="round"/>
</svg>
