<svg width="35" height="35" viewBox="0 0 35 35" fill="none" xmlns="http://www.w3.org/2000/svg">
<path d="M10.9382 29.1666C13.7571 29.1666 16.0423 26.8814 16.0423 24.0624C16.0423 21.2435 13.7571 18.9583 10.9382 18.9583C8.1192 18.9583 5.83398 21.2435 5.83398 24.0624C5.83398 26.8814 8.1192 29.1666 10.9382 29.1666Z" stroke="white" stroke-width="3" stroke-linecap="round" stroke-linejoin="round"/>
<path d="M24.791 30.625C27.2073 30.625 29.166 28.6662 29.166 26.25C29.166 23.8338 27.2073 21.875 24.791 21.875C22.3748 21.875 20.416 23.8338 20.416 26.25C20.416 28.6662 22.3748 30.625 24.791 30.625Z" stroke="white" stroke-width="3" stroke-linecap="round" stroke-linejoin="round"/>
<path d="M13.125 18.9584C13.6588 16.033 15.8462 13.3103 19.6875 10.7917" stroke="white" stroke-width="3" stroke-linecap="round" stroke-linejoin="round"/>
<path d="M24.7922 21.875C22.8483 18.4727 21.3899 14.0977 23.3339 8.75" stroke="white" stroke-width="3" stroke-linecap="round" stroke-linejoin="round"/>
<path d="M7.29102 8.75004C12.6387 4.86066 17.985 4.86066 23.3327 8.75004C17.985 12.6394 12.6387 12.6394 7.29102 8.75004Z" stroke="white" stroke-width="3" stroke-linecap="round" stroke-linejoin="round"/>
</svg>
