<svg width="35" height="35" viewBox="0 0 35 35" fill="none" xmlns="http://www.w3.org/2000/svg">
<path d="M26.2507 5.83325H8.75065C7.13982 5.83325 5.83398 7.13909 5.83398 8.74992V26.2499C5.83398 27.8607 7.13982 29.1666 8.75065 29.1666H26.2507C27.8615 29.1666 29.1673 27.8607 29.1673 26.2499V8.74992C29.1673 7.13909 27.8615 5.83325 26.2507 5.83325Z" stroke="white" stroke-width="3" stroke-linecap="round" stroke-linejoin="round"/>
<path d="M13.8542 14.5833C14.2569 14.5833 14.5833 14.2569 14.5833 13.8542C14.5833 13.4515 14.2569 13.125 13.8542 13.125C13.4515 13.125 13.125 13.4515 13.125 13.8542C13.125 14.2569 13.4515 14.5833 13.8542 14.5833Z" fill="white" stroke="white" stroke-width="3" stroke-linecap="round" stroke-linejoin="round"/>
<path d="M21.1452 21.8751C21.5479 21.8751 21.8743 21.5486 21.8743 21.1459C21.8743 20.7432 21.5479 20.4167 21.1452 20.4167C20.7425 20.4167 20.416 20.7432 20.416 21.1459C20.416 21.5486 20.7425 21.8751 21.1452 21.8751Z" fill="white" stroke="white" stroke-width="3" stroke-linecap="round" stroke-linejoin="round"/>
</svg>
