<svg width="35" height="35" viewBox="0 0 35 35" fill="none" xmlns="http://www.w3.org/2000/svg">
<path d="M23.334 8.74992H27.709C28.0958 8.74992 28.4667 8.90356 28.7402 9.17705C29.0137 9.45055 29.1673 9.82148 29.1673 10.2083V26.2499C29.1673 27.0235 28.86 27.7653 28.313 28.3123C27.7661 28.8593 27.0242 29.1666 26.2506 29.1666M26.2506 29.1666C25.4771 29.1666 24.7352 28.8593 24.1883 28.3123C23.6413 27.7653 23.334 27.0235 23.334 26.2499V7.29159C23.334 6.90481 23.1803 6.53388 22.9068 6.26039C22.6334 5.9869 22.2624 5.83325 21.8757 5.83325H7.29232C6.90554 5.83325 6.53461 5.9869 6.26112 6.26039C5.98763 6.53388 5.83398 6.90481 5.83398 7.29159V24.7916C5.83398 25.9519 6.29492 27.0647 7.11539 27.8852C7.93586 28.7056 9.04866 29.1666 10.209 29.1666H26.2506Z" stroke="white" stroke-width="3" stroke-linecap="round" stroke-linejoin="round"/>
<path d="M11.666 11.6667H17.4993" stroke="white" stroke-width="3" stroke-linecap="round" stroke-linejoin="round"/>
<path d="M8.55469 29.5557H14.388" stroke="white" stroke-width="3" stroke-linecap="round" stroke-linejoin="round"/>
<path d="M11.666 23.3333H17.4993" stroke="white" stroke-width="3" stroke-linecap="round" stroke-linejoin="round"/>
</svg>
