<svg width="35" height="35" viewBox="0 0 35 35" fill="none" xmlns="http://www.w3.org/2000/svg">
<path d="M17.5 30.625C24.7487 30.625 30.625 24.7487 30.625 17.5C30.625 10.2513 24.7487 4.375 17.5 4.375C10.2513 4.375 4.375 10.2513 4.375 17.5C4.375 24.7487 10.2513 30.625 17.5 30.625Z" stroke="white" stroke-width="3" stroke-linecap="round" stroke-linejoin="round"/>
<path d="M17.5007 24.7916C21.5277 24.7916 24.7923 21.527 24.7923 17.4999C24.7923 13.4728 21.5277 10.2083 17.5007 10.2083C13.4736 10.2083 10.209 13.4728 10.209 17.4999C10.209 21.527 13.4736 24.7916 17.5007 24.7916Z" stroke="white" stroke-width="3" stroke-linecap="round" stroke-linejoin="round"/>
<path d="M17.5 4.375V10.2083" stroke="white" stroke-width="3" stroke-linecap="round" stroke-linejoin="round"/>
<path d="M17.5 24.7917V30.6251" stroke="white" stroke-width="3" stroke-linecap="round" stroke-linejoin="round"/>
<path d="M4.375 17.5H10.2083" stroke="white" stroke-width="3" stroke-linecap="round" stroke-linejoin="round"/>
<path d="M24.791 17.5H30.6243" stroke="white" stroke-width="3" stroke-linecap="round" stroke-linejoin="round"/>
<path d="M26.7804 8.21924L22.6562 12.3434" stroke="white" stroke-width="3" stroke-linecap="round" stroke-linejoin="round"/>
<path d="M12.3429 22.6567L8.21875 26.7809" stroke="white" stroke-width="3" stroke-linecap="round" stroke-linejoin="round"/>
<path d="M8.21875 8.21924L12.3429 12.3434" stroke="white" stroke-width="3" stroke-linecap="round" stroke-linejoin="round"/>
<path d="M22.6562 22.6567L26.7804 26.7809" stroke="white" stroke-width="3" stroke-linecap="round" stroke-linejoin="round"/>
</svg>
