<svg width="35" height="35" viewBox="0 0 35 35" fill="none" xmlns="http://www.w3.org/2000/svg">
<path d="M21.875 7.29175V10.2084" stroke="white" stroke-width="3" stroke-linecap="round" stroke-linejoin="round"/>
<path d="M21.875 16.0417V18.9584" stroke="white" stroke-width="3" stroke-linecap="round" stroke-linejoin="round"/>
<path d="M21.875 24.7917V27.7084" stroke="white" stroke-width="3" stroke-linecap="round" stroke-linejoin="round"/>
<path d="M7.29167 7.29175H27.7083C28.4819 7.29175 29.2237 7.59904 29.7707 8.14602C30.3177 8.693 30.625 9.43487 30.625 10.2084V14.5834C29.8515 14.5834 29.1096 14.8907 28.5626 15.4377C28.0156 15.9847 27.7083 16.7265 27.7083 17.5001C27.7083 18.2736 28.0156 19.0155 28.5626 19.5625C29.1096 20.1095 29.8515 20.4167 30.625 20.4167V24.7917C30.625 25.5653 30.3177 26.3072 29.7707 26.8541C29.2237 27.4011 28.4819 27.7084 27.7083 27.7084H7.29167C6.51812 27.7084 5.77625 27.4011 5.22927 26.8541C4.68229 26.3072 4.375 25.5653 4.375 24.7917V20.4167C5.14855 20.4167 5.89041 20.1095 6.43739 19.5625C6.98438 19.0155 7.29167 18.2736 7.29167 17.5001C7.29167 16.7265 6.98438 15.9847 6.43739 15.4377C5.89041 14.8907 5.14855 14.5834 4.375 14.5834V10.2084C4.375 9.43487 4.68229 8.693 5.22927 8.14602C5.77625 7.59904 6.51812 7.29175 7.29167 7.29175" stroke="white" stroke-width="3" stroke-linecap="round" stroke-linejoin="round"/>
</svg>
