<svg width="35" height="35" viewBox="0 0 35 35" fill="none" xmlns="http://www.w3.org/2000/svg">
<path d="M7.29232 4.375H8.75065C9.13742 4.375 9.50836 4.52865 9.78185 4.80214C10.0553 5.07563 10.209 5.44656 10.209 5.83333V8.75H14.584V5.83333C14.584 5.44656 14.7376 5.07563 15.0111 4.80214C15.2846 4.52865 15.6555 4.375 16.0423 4.375H18.959C19.3458 4.375 19.7167 4.52865 19.9902 4.80214C20.2637 5.07563 20.4173 5.44656 20.4173 5.83333V8.75H24.7923V5.83333C24.7923 5.44656 24.946 5.07563 25.2195 4.80214C25.4929 4.52865 25.8639 4.375 26.2506 4.375H27.709C28.0958 4.375 28.4667 4.52865 28.7402 4.80214C29.0137 5.07563 29.1673 5.44656 29.1673 5.83333V12.2413C29.1674 12.8174 28.9969 13.3807 28.6773 13.86L26.7407 16.765C26.421 17.2443 26.2505 17.8076 26.2506 18.3838V29.1667C26.2506 29.5534 26.097 29.9244 25.8235 30.1979C25.55 30.4714 25.1791 30.625 24.7923 30.625H10.209C9.82221 30.625 9.45128 30.4714 9.17779 30.1979C8.9043 29.9244 8.75065 29.5534 8.75065 29.1667V18.3838C8.75078 17.8076 8.58028 17.2443 8.26065 16.765L6.32398 13.86C6.00436 13.3807 5.83386 12.8174 5.83398 12.2413V5.83333C5.83398 5.44656 5.98763 5.07563 6.26112 4.80214C6.53461 4.52865 6.90554 4.375 7.29232 4.375V4.375Z" stroke="white" stroke-width="3" stroke-linecap="round" stroke-linejoin="round"/>
<path d="M14.584 30.6251V23.3334C14.584 22.5599 14.8913 21.818 15.4383 21.271C15.9852 20.724 16.7271 20.4167 17.5007 20.4167C18.2742 20.4167 19.0161 20.724 19.563 21.271C20.11 21.818 20.4173 22.5599 20.4173 23.3334V30.6251" stroke="white" stroke-width="3" stroke-linecap="round" stroke-linejoin="round"/>
</svg>
